PathFileType  4	(X/Y/Z) C:\Users\antoi\Documents\MyRepositories\mobilecap\ResultsAnalysis
DataRate	CameraRate	NumFrames	NumMarkers	Units	OrigDataRate	OrigDataStartFrame	OrigNumFrames
100.0	100.0	4	51	mm	100.0	38	301
Frame#	Time	r_knee			r_shank_antsup			r_ankle			r_calc			r_5meta			r_toe			L_knee			L_shank_antsup			L_ankle			L_calc			L_5meta			L_toe			r_sh2			r_sh3			r_sh4			L_sh2			L_sh3			r_thigh1			r_thigh2			r_thigh3			r_thigh4			r_thigh5			L_thigh1			L_thigh2			L_thigh3			L_thigh4			r.ASIS			r.PSIS			L.ASIS			L.PSIS			C7			R_Shoulder			L_Shoulder			R_Sternum			L_Sternum			R_humerus			R_elbow_med			R_elbow_lat			R_forearm			R_wrist_radius			R_wrist_ulna			L_humerus			L_elbow_med			L_elbow_lat			L_forearm			L_wrist_radius			L_wrist_ulna			R_HJC			L_HJC			R_HJC_reg			L_HJC_reg			
		X1	Y1	Z1	X2	Y2	Z2	X3	Y3	Z3	X4	Y4	Z4	X5	Y5	Z5	X6	Y6	Z6	X7	Y7	Z7	X8	Y8	Z8	X9	Y9	Z9	X10	Y10	Z10	X11	Y11	Z11	X12	Y12	Z12	X13	Y13	Z13	X14	Y14	Z14	X15	Y15	Z15	X16	Y16	Z16	X17	Y17	Z17	X18	Y18	Z18	X19	Y19	Z19	X20	Y20	Z20	X21	Y21	Z21	X22	Y22	Z22	X23	Y23	Z23	X24	Y24	Z24	X25	Y25	Z25	X26	Y26	Z26	X27	Y27	Z27	X28	Y28	Z28	X29	Y29	Z29	X30	Y30	Z30	X31	Y31	Z31	X32	Y32	Z32	X33	Y33	Z33	X34	Y34	Z34	X35	Y35	Z35	X36	Y36	Z36	X37	Y37	Z37	X38	Y38	Z38	X39	Y39	Z39	X40	Y40	Z40	X41	Y41	Z41	X42	Y42	Z42	X43	Y43	Z43	X44	Y44	Z44	X45	Y45	Z45	X46	Y46	Z46	X47	Y47	Z47	X48	Y48	Z48	X49	Y49	Z49	X50	Y50	Z50	X51	Y51	Z51	

38	0.37000000	-1194.20335	806.64841	-422.16816	-1228.39992	760.79813	-393.12942	-1240.00821	405.86134	-456.97682	-1296.34956	364.91236	-511.69631	-1118.66470	347.47095	-413.66590	-1076.59437	369.07360	-468.01643	-1192.05755	805.29569	-746.27894	-1171.89909	718.31929	-754.07309	-1242.01364	405.79800	-714.25533	-1300.97777	369.26797	-668.13538	-1123.89451	351.79956	-737.09722	-1079.35805	370.38592	-682.42947	-1235.25538	645.41247	-392.20558	-1159.98554	759.88111	-429.61630	-1166.46518	646.24587	-441.45194	-1257.36451	735.21760	-769.17539	-1268.08503	613.56520	-761.93157	-1149.23874	1099.97807	-391.54243	-1153.05503	985.36344	-384.10381	-1105.71348	964.35079	-406.58040	-1083.36581	1091.74713	-480.98679	-1084.15228	980.61042	-470.00296	-1133.07305	1125.86808	-764.21323	-1139.54368	984.18338	-771.94678	-1244.85447	1129.95647	-763.97138	-1251.83261	989.86558	-746.29784	-1092.84011	1274.17595	-457.28376	-1283.08310	1315.46098	-533.53731	-1090.72517	1264.16318	-693.22079	-1284.15187	1316.10184	-631.69150	-1190.51874	1787.74792	-596.29552	-1144.78233	1748.53204	-434.89804	-1154.81248	1734.58151	-748.61074	-1101.04007	1676.44732	-578.11436	-1102.54800	1672.46027	-610.21264	-1137.87894	1516.26073	-348.47792	-1204.26634	1419.27404	-364.90039	-1156.87287	1425.55907	-318.39294	-1047.00946	1337.88829	-358.32385	-970.89704	1288.09488	-407.99958	-992.97103	1255.97577	-387.40441	-1180.75928	1503.45233	-828.69116	-1235.12975	1397.27850	-785.04380	-1211.67446	1401.42167	-844.79583	-1093.94966	1312.97997	-830.39045	-1004.97989	1261.85980	-795.53630	-1034.93197	1228.38402	-796.35086	-1171.44697	1195.51677	-491.13080	-1181.69995	1199.54837	-681.48250	-1164.08096	1200.75895	-489.66783	-1165.78882	1201.77763	-645.51507	
39	0.38000000	-1194.19048	806.62736	-422.25151	-1228.40065	760.77528	-393.09793	-1240.00696	406.12366	-456.98393	-1296.35297	364.91009	-511.69332	-1118.59535	347.51658	-413.67753	-1076.59964	369.04137	-468.04149	-1191.69282	805.24713	-746.16389	-1171.52674	718.28401	-753.98653	-1242.00024	405.81400	-714.23953	-1300.96884	369.29328	-668.14171	-1123.90291	351.82670	-737.14988	-1079.24645	370.44286	-682.44345	-1235.18336	645.43574	-392.19355	-1159.91101	759.86408	-429.69125	-1166.34896	646.24087	-441.49654	-1257.05777	735.13577	-768.82064	-1267.81481	613.61911	-761.88368	-1149.40089	1099.93445	-391.61308	-1153.12852	985.37609	-384.11978	-1105.76320	964.38727	-406.64021	-1083.67127	1091.69461	-481.23152	-1084.33304	980.64068	-470.05615	-1133.17913	1125.87470	-764.25361	-1139.42923	984.21246	-772.02032	-1244.92102	1129.88060	-764.17436	-1251.74858	989.78810	-746.34799	-1093.04692	1273.99534	-457.21661	-1283.19053	1315.66621	-533.62906	-1090.37055	1264.36441	-693.30628	-1285.27387	1316.50790	-630.98357	-1188.96017	1787.75062	-596.30770	-1143.12281	1748.35695	-435.24651	-1153.19437	1734.60880	-748.50613	-1099.80972	1676.12585	-578.05139	-1101.27212	1672.12058	-610.16885	-1135.58050	1516.46185	-348.45499	-1201.62102	1419.17463	-364.40883	-1154.06627	1425.75066	-318.24940	-1042.85602	1340.13997	-358.62804	-966.36945	1291.89133	-409.32057	-987.77040	1259.25707	-388.78135	-1178.66099	1503.80417	-829.20788	-1233.14375	1397.23456	-786.06899	-1209.41400	1401.36069	-845.25370	-1090.70114	1314.60204	-830.31390	-1001.18732	1264.72326	-794.70673	-1030.62397	1230.84517	-795.74196	-1171.72483	1195.49576	-491.17767	-1182.05920	1199.90358	-681.51709	-1163.42319	1200.73407	-489.01283	-1166.77057	1202.08375	-644.92453	
40	0.39000000	-1194.12492	806.60332	-422.36215	-1228.28164	760.92691	-393.05446	-1240.00199	405.99670	-456.98608	-1296.35791	364.90879	-511.68832	-1118.59177	347.52240	-413.68687	-1076.60372	369.02955	-468.07954	-1191.32360	805.13590	-745.94260	-1171.14972	718.25149	-753.93173	-1241.97230	405.82887	-714.23814	-1300.95565	369.32469	-668.15545	-1123.90484	351.84477	-737.17837	-1079.29724	370.43444	-682.46942	-1235.05615	645.46508	-392.16619	-1159.79355	759.80212	-429.86378	-1166.25362	646.28766	-441.50244	-1256.62310	735.18857	-768.68548	-1267.46806	613.71955	-761.89178	-1149.51375	1099.88732	-391.67384	-1153.13314	985.35917	-384.16736	-1105.83246	964.43112	-406.71731	-1083.87869	1091.63538	-481.45424	-1084.46033	980.65364	-470.19973	-1133.24313	1125.89329	-764.28418	-1139.29439	984.19947	-771.98500	-1244.95668	1129.81718	-764.46240	-1251.63250	989.69030	-746.41682	-1093.29567	1273.87435	-457.16541	-1283.26400	1315.87512	-533.74205	-1090.31486	1264.40551	-693.29051	-1285.90772	1316.89585	-630.59710	-1187.33618	1787.73685	-596.26132	-1141.51137	1748.36002	-435.30049	-1151.50452	1734.53353	-748.35376	-1098.53216	1675.85072	-578.03990	-1099.97724	1671.81621	-610.11669	-1133.25048	1516.67557	-348.36147	-1199.00051	1419.07502	-363.87186	-1151.24055	1426.01430	-317.92646	-1038.66203	1342.39551	-358.79539	-961.99597	1295.68506	-410.38952	-982.64230	1262.60782	-390.07081	-1176.55433	1504.18477	-829.58319	-1231.12741	1397.19703	-787.20838	-1207.14626	1401.32279	-845.76084	-1087.42669	1316.18637	-830.35140	-997.51482	1267.54126	-794.01990	-1026.42885	1233.16722	-795.13814	-1172.06963	1195.52026	-491.18604	-1182.40733	1200.12337	-681.52173	-1163.20799	1200.65767	-488.67537	-1167.46007	1202.29974	-644.59054	
41	0.40000000	-1193.99032	806.57628	-422.45895	-1228.22062	760.79679	-393.19069	-1239.99450	404.89221	-456.96354	-1296.35121	364.90624	-511.69888	-1118.62977	347.52355	-413.69060	-1076.60143	369.06001	-468.13414	-1190.89289	805.03266	-745.76770	-1170.75090	718.23511	-753.91604	-1241.93722	405.84762	-714.25670	-1300.94843	369.34162	-668.15966	-1123.89924	351.83169	-737.15535	-1079.58168	370.33020	-682.51846	-1234.88766	645.51029	-392.12892	-1159.61112	759.70755	-430.16675	-1166.18098	646.35230	-441.55882	-1256.06009	735.33646	-768.70746	-1267.11422	613.81287	-761.84891	-1149.58213	1099.85725	-391.73118	-1153.12997	985.32184	-384.24531	-1105.90479	964.46065	-406.80720	-1084.01850	1091.69069	-481.57136	-1084.53909	980.65764	-470.47696	-1133.30395	1125.90511	-764.32305	-1139.17090	984.17246	-771.92482	-1245.00391	1129.72229	-764.62696	-1251.51352	989.55530	-746.46025	-1093.47568	1273.63077	-457.16025	-1283.35002	1316.13658	-533.90925	-1090.42695	1264.32928	-693.28893	-1285.90757	1317.16437	-630.84429	-1185.66183	1787.70300	-596.19839	-1139.92201	1748.50777	-435.08343	-1149.79173	1734.45365	-748.17067	-1097.15806	1675.54842	-578.02233	-1098.66516	1671.52574	-609.99437	-1130.90913	1516.86384	-348.38295	-1196.34378	1418.96064	-363.47461	-1148.41757	1426.34978	-317.40132	-1034.71968	1344.58795	-359.10873	-957.72561	1299.34622	-411.41970	-977.68118	1265.85635	-391.31981	-1174.41137	1504.52723	-829.92574	-1229.04390	1397.19484	-788.41016	-1204.76671	1401.56751	-846.82154	-1084.17356	1317.72834	-830.47011	-994.00335	1270.27016	-793.45228	-1022.38287	1235.36379	-794.70554	-1172.45173	1195.49171	-491.32616	-1182.61685	1200.21809	-681.66768	-1163.60668	1200.68207	-488.73523	-1167.71810	1202.33468	-644.65223	
